<mxfile host="Electron" modified="2024-01-08T17:03:36.758Z" agent="Mozilla/5.0 (Windows NT 10.0; Win64; x64) AppleWebKit/537.36 (KHTML, like Gecko) draw.io/22.1.11 Chrome/114.0.5735.289 Electron/25.9.8 Safari/537.36" etag="-C5HO7UjRyUbpu-Vwe9b" version="22.1.11" type="device">
  <diagram name="Page-1" id="GGvPSorWGa3icBJUc41_">
    <mxGraphModel dx="989" dy="577" grid="1" gridSize="10" guides="1" tooltips="1" connect="1" arrows="1" fold="1" page="1" pageScale="1" pageWidth="850" pageHeight="1100" math="0" shadow="0">
      <root>
        <mxCell id="0" />
        <mxCell id="1" parent="0" />
        <mxCell id="BiD5d6PMnU6MxUF_Fy0G-3" value="Training" style="rounded=1;whiteSpace=wrap;html=1;verticalAlign=top;fillColor=none;dashed=1;" vertex="1" parent="1">
          <mxGeometry x="40" y="60" width="140" height="200" as="geometry" />
        </mxCell>
        <mxCell id="BiD5d6PMnU6MxUF_Fy0G-5" value="Inference" style="rounded=1;whiteSpace=wrap;html=1;verticalAlign=top;dashed=1;gradientColor=none;fillColor=none;" vertex="1" parent="1">
          <mxGeometry x="200" y="60" width="160" height="200" as="geometry" />
        </mxCell>
        <mxCell id="BiD5d6PMnU6MxUF_Fy0G-9" style="edgeStyle=orthogonalEdgeStyle;rounded=0;orthogonalLoop=1;jettySize=auto;html=1;entryX=0.5;entryY=0;entryDx=0;entryDy=0;" edge="1" parent="1" source="BiD5d6PMnU6MxUF_Fy0G-6" target="BiD5d6PMnU6MxUF_Fy0G-7">
          <mxGeometry relative="1" as="geometry">
            <Array as="points">
              <mxPoint x="110" y="120" />
              <mxPoint x="75" y="120" />
            </Array>
          </mxGeometry>
        </mxCell>
        <mxCell id="BiD5d6PMnU6MxUF_Fy0G-6" value="question" style="rounded=1;whiteSpace=wrap;html=1;fillColor=#ffcccc;strokeColor=#36393d;" vertex="1" parent="1">
          <mxGeometry x="80" y="90" width="60" height="20" as="geometry" />
        </mxCell>
        <mxCell id="BiD5d6PMnU6MxUF_Fy0G-7" value="LLM" style="rounded=1;whiteSpace=wrap;html=1;fillColor=#ffff88;strokeColor=#36393d;" vertex="1" parent="1">
          <mxGeometry x="50" y="140" width="50" height="40" as="geometry" />
        </mxCell>
        <mxCell id="BiD5d6PMnU6MxUF_Fy0G-19" value="" style="edgeStyle=orthogonalEdgeStyle;rounded=0;orthogonalLoop=1;jettySize=auto;html=1;" edge="1" parent="1" source="BiD5d6PMnU6MxUF_Fy0G-8" target="BiD5d6PMnU6MxUF_Fy0G-18">
          <mxGeometry relative="1" as="geometry" />
        </mxCell>
        <mxCell id="BiD5d6PMnU6MxUF_Fy0G-8" value="LLM + RAG" style="rounded=1;whiteSpace=wrap;html=1;fillColor=#ffcc99;strokeColor=#36393d;" vertex="1" parent="1">
          <mxGeometry x="120" y="140" width="50" height="40" as="geometry" />
        </mxCell>
        <mxCell id="BiD5d6PMnU6MxUF_Fy0G-11" style="edgeStyle=orthogonalEdgeStyle;rounded=0;orthogonalLoop=1;jettySize=auto;html=1;entryX=0.517;entryY=0.051;entryDx=0;entryDy=0;entryPerimeter=0;" edge="1" parent="1" source="BiD5d6PMnU6MxUF_Fy0G-6" target="BiD5d6PMnU6MxUF_Fy0G-8">
          <mxGeometry relative="1" as="geometry">
            <Array as="points">
              <mxPoint x="110" y="120" />
              <mxPoint x="146" y="120" />
            </Array>
          </mxGeometry>
        </mxCell>
        <mxCell id="BiD5d6PMnU6MxUF_Fy0G-12" value="VS" style="text;html=1;align=center;verticalAlign=middle;resizable=0;points=[];autosize=1;strokeColor=none;fillColor=none;fontSize=7;" vertex="1" parent="1">
          <mxGeometry x="95" y="150" width="30" height="20" as="geometry" />
        </mxCell>
        <mxCell id="BiD5d6PMnU6MxUF_Fy0G-13" value="" style="endArrow=classic;html=1;rounded=0;exitX=0.5;exitY=1;exitDx=0;exitDy=0;" edge="1" parent="1" source="BiD5d6PMnU6MxUF_Fy0G-7">
          <mxGeometry width="50" height="50" relative="1" as="geometry">
            <mxPoint x="30" y="210" as="sourcePoint" />
            <mxPoint x="75" y="200" as="targetPoint" />
          </mxGeometry>
        </mxCell>
        <mxCell id="BiD5d6PMnU6MxUF_Fy0G-15" value="&lt;font style=&quot;font-size: 9px;&quot;&gt;LLM Knowns&lt;/font&gt;" style="rounded=1;whiteSpace=wrap;html=1;fillColor=#cce5ff;strokeColor=#36393d;" vertex="1" parent="1">
          <mxGeometry x="50" y="200" width="50" height="40" as="geometry" />
        </mxCell>
        <mxCell id="BiD5d6PMnU6MxUF_Fy0G-18" value="&lt;font style=&quot;font-size: 9px;&quot;&gt;LLM Unknowns&lt;/font&gt;" style="rounded=1;whiteSpace=wrap;html=1;fillColor=#eeeeee;strokeColor=#36393d;" vertex="1" parent="1">
          <mxGeometry x="120" y="200" width="50" height="40" as="geometry" />
        </mxCell>
        <mxCell id="BiD5d6PMnU6MxUF_Fy0G-26" style="edgeStyle=orthogonalEdgeStyle;rounded=0;orthogonalLoop=1;jettySize=auto;html=1;entryX=0.5;entryY=0;entryDx=0;entryDy=0;" edge="1" parent="1" source="BiD5d6PMnU6MxUF_Fy0G-20" target="BiD5d6PMnU6MxUF_Fy0G-23">
          <mxGeometry relative="1" as="geometry">
            <Array as="points">
              <mxPoint x="280" y="120" />
              <mxPoint x="315" y="120" />
            </Array>
          </mxGeometry>
        </mxCell>
        <mxCell id="BiD5d6PMnU6MxUF_Fy0G-27" style="edgeStyle=orthogonalEdgeStyle;rounded=0;orthogonalLoop=1;jettySize=auto;html=1;entryX=0.5;entryY=0;entryDx=0;entryDy=0;" edge="1" parent="1" source="BiD5d6PMnU6MxUF_Fy0G-20" target="BiD5d6PMnU6MxUF_Fy0G-22">
          <mxGeometry relative="1" as="geometry">
            <Array as="points">
              <mxPoint x="280" y="120" />
              <mxPoint x="245" y="120" />
            </Array>
          </mxGeometry>
        </mxCell>
        <mxCell id="BiD5d6PMnU6MxUF_Fy0G-20" value="question" style="rounded=1;whiteSpace=wrap;html=1;fillColor=#ffcccc;strokeColor=#36393d;" vertex="1" parent="1">
          <mxGeometry x="250" y="90" width="60" height="20" as="geometry" />
        </mxCell>
        <mxCell id="BiD5d6PMnU6MxUF_Fy0G-29" style="edgeStyle=orthogonalEdgeStyle;rounded=0;orthogonalLoop=1;jettySize=auto;html=1;entryX=0.5;entryY=0;entryDx=0;entryDy=0;" edge="1" parent="1" source="BiD5d6PMnU6MxUF_Fy0G-22" target="BiD5d6PMnU6MxUF_Fy0G-24">
          <mxGeometry relative="1" as="geometry" />
        </mxCell>
        <mxCell id="BiD5d6PMnU6MxUF_Fy0G-22" value="&lt;font style=&quot;font-size: 9px;&quot;&gt;LLM Knowns&lt;/font&gt;" style="rounded=1;whiteSpace=wrap;html=1;fillColor=#cce5ff;strokeColor=#36393d;" vertex="1" parent="1">
          <mxGeometry x="220" y="140" width="50" height="40" as="geometry" />
        </mxCell>
        <mxCell id="BiD5d6PMnU6MxUF_Fy0G-28" style="edgeStyle=orthogonalEdgeStyle;rounded=0;orthogonalLoop=1;jettySize=auto;html=1;entryX=0.5;entryY=0;entryDx=0;entryDy=0;" edge="1" parent="1" source="BiD5d6PMnU6MxUF_Fy0G-23" target="BiD5d6PMnU6MxUF_Fy0G-25">
          <mxGeometry relative="1" as="geometry" />
        </mxCell>
        <mxCell id="BiD5d6PMnU6MxUF_Fy0G-23" value="&lt;font style=&quot;font-size: 9px;&quot;&gt;LLM Unknowns&lt;/font&gt;" style="rounded=1;whiteSpace=wrap;html=1;fillColor=#eeeeee;strokeColor=#36393d;" vertex="1" parent="1">
          <mxGeometry x="290" y="140" width="50" height="40" as="geometry" />
        </mxCell>
        <mxCell id="BiD5d6PMnU6MxUF_Fy0G-24" value="LLM" style="rounded=1;whiteSpace=wrap;html=1;fillColor=#ffff88;strokeColor=#36393d;" vertex="1" parent="1">
          <mxGeometry x="220" y="200" width="50" height="40" as="geometry" />
        </mxCell>
        <mxCell id="BiD5d6PMnU6MxUF_Fy0G-25" value="LLM + RAG" style="rounded=1;whiteSpace=wrap;html=1;fillColor=#ffcc99;strokeColor=#36393d;" vertex="1" parent="1">
          <mxGeometry x="290" y="200" width="50" height="40" as="geometry" />
        </mxCell>
      </root>
    </mxGraphModel>
  </diagram>
</mxfile>
